<svg viewBox="0 0 10412 3830" height="306" width="833"  xmlns="http://www.w3.org/2000/svg">
  <path d="m5433.7-5h-2718.56l1359.28 2874.75z" fill="#c3c3c3"/>
  <path d="m-3.42 3828h2718.56l-1359.28-2874.73z" fill="#757575"/>
  <path d="m3621.31 3828h2718.56l-1359.28-2874.73z" fill="#5a5a5a"/>
  <path d="m1809 3828h2718.52l-1359.29-2874.73z" fill="#c0c0c0"/>
  <path d="m5433.7 3828h2718.57l-1359.27-2874.73z" fill="#484848"/>
  <path d="m7246.08 3828h2718.56l-1359.28-2874.73z" fill="#828282"/>
  <path d="m7246.08-5h-2718.56l1359.28 2874.75z" fill="#484848"/>
  <path d="m3621.33-5h-2718.56l1359.28 2874.75z" fill="#bababa"/>
  <path d="m9058.43-5h-2718.56l1359.28 2874.75z" fill="#828282"/>
  <path d="m4074.42 3828h1812.38l-906.19-1916.49z" fill="#3d3d3d"/>
  <path d="m2715.1 1911.51h1812.37l-906.19-1916.51z" fill="#b0b0b0"/>
  <path d="m8152.25 2869.75h1812.37l-906.19-1916.48z" fill="#454545"/>
  <path d="m-456.52 2869.75h1812.38l-906.19-1916.48z" fill="#454545"/>
  <path d="m1808.9-5h-1812.38l906.19 1916.51z" fill="#454545"/>
  <path d="m9964.62-5h-1812.37l906.18 1916.48z" fill="#454545"/>
  <path d="m10870.83-5h-1812.38l906.19 1916.48z" fill="#454545"/>
  <path d="m10871 1911.51h-1812.39l906.19 1916.49z" fill="#828282"/>
  <path d="m4074.42 1911.51h-906.19l453.1 958.24z" fill="#c3c3c3"/>
  <path d="m3168.23-5h-906.18l453.09 958.24z" fill="#bababa"/>
  <path d="m2715.14-5-453.09 958.27h906.18z" fill="#adadad"/>
  <path d="m4074.42-5h-906.19l453.1 958.24z" fill="#c3c3c3"/>
  <path d="m4980.61-5h-906.19l453.1 958.24z" fill="#7c7c7c"/>
  <path d="m5886.8-5h-906.19l453.09 958.27z" fill="#7c7c7c"/>
  <path d="m6793-5h-906.2l453.09 958.24z" fill="#484848"/>
  <path d="m7699.17-5h-906.17l453.1 958.24z" fill="#484848"/>
  <path d="m2262.05 953.27h-906.19l453.14 958.24z" fill="#454545"/>
  <path d="m3168.23 953.27h-906.18l453.09 958.24z" fill="#bababa"/>
  <path d="m4074.42 953.27h-906.19l453.1 958.24z" fill="#b0b0b0"/>
  <path d="m4980.61 953.27h-906.19l453.1 958.24z" fill="#6e6e6e"/>
  <path d="m5886.8 953.27h-906.19l453.09 958.24z" fill="#484848"/>
  <path d="m6793 953.27h-906.2l453.09 958.24z" fill="#292929"/>
  <path d="m8605.36 953.27h-906.19l453.1 958.24z" fill="#484848"/>
  <path d="m2262.05 1911.51h-906.19l453.14 958.24z" fill="#757575"/>
  <path d="m3168.23 1911.51h-906.18l453.09 958.24z" fill="#bababa"/>
  <path d="m4980.61 1911.51h-906.19l453.1 958.24z" fill="#c3c3c3"/>
  <path d="m5886.8 1911.51h-906.19l453.09 958.24z" fill="#828282"/>
  <path d="m6793 1911.51h-906.2l453.09 958.24z" fill="#484848"/>
  <path d="m7699.17 1911.51h-906.17l453.1 958.24z" fill="#454545"/>
  <path d="m10870.87 1911.51h-906.19l453.1 958.24z" fill="#454545"/>
  <path d="m10417.65 2869.73h-906.19l453.1 958.27z" fill="#454545"/>
  <path d="m10870.87 2869.73h-906.19l453.1 958.24z" fill="#454545"/>
  <path d="m10870.87-4.87h-906.19l453.1 958.24z" fill="#454545"/>
  <path d="m2262.05 2869.75h-906.19l453.14 958.25z" fill="#474747"/>
  <path d="m3168.23 2869.75h-906.18l453.09 958.25z" fill="#bababa"/>
  <path d="m4074.42 2869.75h-906.19l453.1 958.25z" fill="#989898"/>
  <path d="m4980.61 2869.75h-906.19l453.1 958.25z" fill="#6e6e6e"/>
  <path d="m5886.8 2869.75h-906.19l453.09 958.25z" fill="#3d3d3d"/>
  <path d="m6793 2869.75h-906.2l453.09 958.25z" fill="#484848"/>
  <path d="m8605.36-5h-906.19l453.1 958.24z" fill="#484848"/>
  <path d="m7699.17 953.27h-906.17l453.1 958.24z" fill="#484848"/>
  <path d="m8605.36 1911.51h-906.19l453.1 958.24z" fill="#454545"/>
  <path d="m7699.17 2869.75h-906.17l453.08 958.25z" fill="#484848"/>
  <path d="m8605.36 2869.75h-906.19l453.1 958.25z" fill="#484848"/>
  <path d="m9964.68 1911.51h-906.18l453.09 958.24z" fill="#666"/>
  <path d="m9964.39 953.27h-906.19l453.09 958.24z" fill="#454545"/>
  <path d="m1808.9 953.27h-906.19l453.09 958.24z" fill="#666"/>
  <path d="m902.77-5h-906.19l453.09 958.27z" fill="#515151"/>
  <path d="m9964.61 2869.75h-906.18l453.09 958.25z" fill="#484848"/>
  <path d="m223.07 1432.43 453.09-957.73h-906.16z" fill="#666"/>
  <path d="m-3.42 953.56 453.09-957.73h-906.19z" fill="#666"/>
  <path d="m902.71 953.75 453.09-958.75h-906.18z" fill="#515151"/>
  <path d="m6793-5-453.11 958.27h906.19z" fill="#484848"/>
  <path d="m5886.8 1911.51-453.1 958.24h906.19z" fill="#484848"/>
  <path d="m7246.08 1911.51h-906.19l453.11 958.24z" fill="#454545"/>
  <path d="m6339.88 1911.51h-906.19l453.09 958.24z" fill="#454545"/>
  <path d="m9058.45 2869.75h-906.18l453.09 958.25z" fill="#666"/>
  <path d="m4980.61 3828h906.19l-453.1-958.24z" fill="#c3c3c3"/>
  <path d="m902.77 3828h906.23l-453.09-958.24z" fill="#adadad"/>
  <path d="m-456.52 1911.25h906.19l-453.09-957.73z" fill="#474747"/>
  <path d="m-456.52 2869.72h906.19l-453.09-957.72z" fill="#666"/>
  <path d="m4527.52-5h-906.19l453.09 958.24z" fill="#5a5a5a"/>
  <path d="m3621.33 953.27h-906.19l453.09 958.24z" fill="#989898"/>
  <path d="m4074.42 953.27-453.09 958.24h906.19z" fill="#c3c3c3"/>
  <path d="m3621.33 2869.75h-906.19l453.09 958.25z" fill="#989898"/>
  <path d="m-3.54 3827.93 453.1-958.24h-906.19z" fill="#454545"/>
  <path d="m-3.42 2869.75 453.09-958.24h-906.19z" fill="#454545"/>
  <path d="m10417.54 953.78-452.86 957.73h905.71z" fill="#828282"/>
  <path d="m2262.05-5h-453.05l226.5 479.15z" fill="#adadad"/>
  <path d="m2035.44 474.15h-453.09l226.55 479.12z" fill="#454545"/>
  <path d="m902.77-5h-453.1l226.55 479.15z" fill="#454545"/>
  <path d="m2262.05 953.27h-453.05l226.55 479.12z" fill="#757575"/>
  <path d="m2715.14 953.27h-453.09l226.54 479.12z" fill="#bababa"/>
  <path d="m2488.59 1433.17h-453.09l226.55 479.12z" fill="#bababa"/>
  <path d="m1129.26 1432.39h-453.1l226.55 479.12z" fill="#d4d4d4"/>
  <path d="m10191.1 474.15-226.54 479.12h453.09z" fill="#d4d4d4"/>
  <path d="m2715.14 1911.51h-453.09l226.54 479.12z" fill="#c0c0c0"/>
  <path d="m2262.05 1911.51-226.55 479.12h453.09z" fill="#d0d0d0"/>
  <path d="m3621.36 1911.51-226.55 479.12h453.1z" fill="#d0d0d0"/>
  <path d="m3848.21 1432.28-226.54 479.12h453.09z" fill="#7c7c7c"/>
  <path d="m1355.8 1911.51-226.54 479.12h453.09z" fill="#666"/>
  <path d="m2262.05 2869.75h-453.05l226.55 479.12z" fill="#bababa"/>
  <path d="m4074.42-5h-453.09l226.54 479.12z" fill="#c3c3c3"/>
  <path d="m4301 1432.39-226.55 479.12h453.1z" fill="#b0b0b0"/>
  <path d="m4527.52 953.27h-453.1l226.58 479.12z" fill="#c3c3c3"/>
  <path d="m4527.52-5-226.52 479.15h453.09z" fill="#6d6d6d"/>
  <path d="m4527.52 1911.51h-453.1l226.58 479.12z" fill="#c3c3c3"/>
  <path d="m4754 2390.63h-453.1l226.55 479.12z" fill="#b0b0b0"/>
  <path d="m4527.52 2869.75h-453.1l226.58 479.12z" fill="#3d3d3d"/>
  <path d="m5433.7-5h-453.09l226.55 479.12z" fill="#c3c3c3"/>
  <path d="m5207.16 474.15h-453.1l226.55 479.12z" fill="#292929"/>
  <path d="m5433.7 953.27h-453.09l226.55 479.12z" fill="#484848"/>
  <path d="m5207.16 1432.39h-453.1l226.55 479.12z" fill="#b0b0b0"/>
  <path d="m5433.7 1911.51h-453.09l226.55 479.12z" fill="#484848"/>
  <path d="m5207.16 2390.63h-453.1l226.55 479.12z" fill="#6d6d6d"/>
  <path d="m5433.7 2869.75h-453.09l226.55 479.12z" fill="#3d3d3d"/>
  <path d="m5207.14 3348.87h-453.14l226.59 479.13z" fill="#3d3d3d"/>
  <path d="m3621.28-5h-453.09l226.55 479.12z" fill="#b0b0b0"/>
  <path d="m3168.23-5h-453.09l226.55 479.12z" fill="#7c7c7c"/>
  <path d="m3621.28 953.27h-453.09l226.55 479.12z" fill="#c3c3c3"/>
  <path d="m3847.87 1432.39h-453.09l226.55 479.12z" fill="#6d6d6d"/>
  <path d="m3394.74 1432.39-226.55 479.12h453.09z" fill="#6f6f6f"/>
  <path d="m2941.64 1432.39-226.54 479.12h453.09z" fill="#c0c0c0"/>
  <path d="m3394.74 2390.63h-453.1l226.55 479.12z" fill="#989898"/>
  <path d="m3621.28 2869.75h-453.09l226.55 479.12z" fill="#bababa"/>
  <path d="m6339.89-5h-453.09l226.54 479.12z" fill="#484848"/>
  <path d="m5207.16 1432.39h453.09l-226.55-479.12z" fill="#5a5a5a"/>
  <path d="m6339.89 953.27h-453.09l226.54 479.12z" fill="#484848"/>
  <path d="m6792.94 2869.75h-453.09l226.54 479.12z" fill="#515151"/>
  <path d="m6113.33 474.15h-453.09l226.55 479.12z" fill="#b0b0b0"/>
  <path d="m6339.89 953.27h-453.09l226.54 479.12z" fill="#666"/>
  <path d="m6339.89 2869.75h-453.09l226.54 479.12z" fill="#515151"/>
  <path d="m8152.27-5h-453.1l226.55 479.12z" fill="#666"/>
  <path d="m8152.25 953.27h-453.1l226.55 479.12z" fill="#828282"/>
  <path d="m9285 474.15h-453.09l226.54 479.12z" fill="#b5b5b5"/>
  <path d="m8152.27 1911.51h-453.1l226.55 479.12z" fill="#666"/>
  <path d="m7925.7 1432.39h-453.09l226.54 479.12z" fill="#828282"/>
  <g fill="#454545">
    <path d="m7472.61 474.15-226.55 479.12h453.09z"/>
    <path d="m1355.8 2869.75h-453.09l226.55 479.12z"/>
    <path d="m1129.31 2390.63h-453.09l226.55 479.12z"/>
    <path d="m449.67 1911.51-226.54 479.12h453.09z"/>
    <path d="m-3.42 2869.75-226.58 479.12h453.1z"/>
    <path d="m449.67 2869.75-226.54 479.12h453.09z"/>
    <path d="m676.1 3349.3-226.54 479.12h453.09z"/>
    <path d="m1581.54 3347.6-226.54 479.12h453.09z"/>
  </g>
  <path d="m7472.61 3345.9-226.55 479.1h453.09z" fill="#484848"/>
  <path d="m8152.27 2869.75h-453.1l226.55 479.12z" fill="#454545"/>
  <path d="m9058.45-5h-453.09l226.55 479.12z" fill="#666"/>
  <path d="m6113.34 1432.39-226.54 479.12h453.09z" fill="#828282"/>
  <path d="m9058.45 953.27h-453.09l226.55 479.12z" fill="#404040"/>
  <path d="m9285 2390.63h-453l226.55 479.12z" fill="#666"/>
  <path d="m9058.45 1911.51h-453.09l226.55 479.12z" fill="#666"/>
  <path d="m9964.68 1911.51h-453.09l226.55 479.12z" fill="#828282"/>
  <path d="m8831.91 2390.63-226.55 479.12h453.09z" fill="#828282"/>
  <path d="m10191.23 3347.86-226.55 479.14h453.1z" fill="#828282"/>
  <path d="m10191.17 1432.39-226.55 479.12h453.1z" fill="#828282"/>
  <path d="m8378.81 1432.39-226.54 479.12h453.09z" fill="#484848"/>
  <path d="m9738.14 1432.39-226.55 479.12h453.09z" fill="#828282"/>
  <path d="m7246-5h-453.06l226.55 479.12z" fill="#515151"/>
  <path d="m7019.53 474.15h-453.09l226.56 479.12z" fill="#515151"/>
  <path d="m7246.08 953.27h-453.08l226.55 479.12z" fill="#292929"/>
  <path d="m7246 1911.51h-453.06l226.55 479.12z" fill="#484848"/>
  <path d="m5660.25 3348.87h-453.09l226.54 479.13z" fill="#484848"/>
  <path d="m7019.54 1432.39h-453.1l226.56 479.12z" fill="#474747"/>
  <path d="m7246 2869.75h-453.06l226.55 479.12z" fill="#454545"/>
  <path d="m3168.19 1911.51h-453.09l226.54 479.12z" fill="#989898"/>
  <path d="m9058.45 2869.75h-453.09l226.55 479.12z" fill="#666"/>
  <path d="m2488.59 3348.87h-453.09l226.55 479.13z" fill="#989898"/>
  <path d="m1581.45 3348.87h-453.09l226.55 479.13z" fill="#adadad"/>
  <path d="m9511.55-5h-453.1l226.55 479.12z" fill="#666"/>
  <path d="m7699.15-4.89h-226.54l113.27 239.56z" fill="#666"/>
  <path d="m8605.36-5.11h-226.55l113.28 239.56z" fill="#666"/>
  <path d="m9738.09-5h-226.54l113.27 239.56z" fill="#666"/>
  <path d="m9510.61 1911.56h-226.55l113.28 239.56z" fill="#666"/>
  <path d="m8492.65 3585.46h-226.54l113.27 239.54z" fill="#666"/>
  <path d="m5320.71 3589.05h-226.55l113.27 239.56z" fill="#6d6d6d"/>
  <path d="m6339.88 1911.51h-226.55l113.28 239.56z" fill="#484848"/>
  <path d="m5886.8-4.89h-226.55l113.27 239.56z" fill="#7c7c7c"/>
  <path d="m4299.84 474.33h-226.55l113.27 239.56z" fill="#b0b0b0"/>
  <path d="m8605.38 953.78h-226.55l113.27 239.56z" fill="#666"/>
  <path d="m8379.38 1911.51h-226.55l113.28 239.56z" fill="#666"/>
  <path d="m9624.82 1193.34h226.55l-113.28-239.56z" fill="#666"/>
  <path d="m7699.16 2869.72h226.55l-113.27-239.56z" fill="#666"/>
  <path d="m4074.42 952.76h-226.55l113.28 239.56z" fill="#7c7c7c"/>
  <path d="m4074.42 2393.59h-226.55l113.28 239.56z" fill="#7c7c7c"/>
  <path d="m4527.47 1911.51-113.27 239.56h226.55z" fill="#7c7c7c"/>
  <path d="m5547 1671.84-113.3 239.56h226.55z" fill="#484848"/>
  <path d="m3960.94 3588.29-113.27 239.56h226.54z" fill="#515151"/>
  <path d="m334.67 3588.43-113.27 239.57h226.6z" fill="#454545"/>
  <path d="m449.67 952.76-113.27 239.56h226.6z" fill="#454545"/>
  <path d="m222.12-4.46-113.28 239.56h226.55z" fill="#454545"/>
  <path d="m2601.87 2154-113.28 239.56h226.55z" fill="#515151"/>
  <path d="m2142 699.46 106.53-225.31h-213.09z" fill="#adadad"/>
  <path d="m796.23 2136.82 106.54-225.31h-213.08z" fill="#adadad"/>
</svg>
